<svg xmlns="http://www.w3.org/2000/svg" width="1440" height="700" viewBox="0 0 1440 700"><path fill="#FFF" d="M1298.727 40.673l55.8 32.217v64.43l-55.8 32.215-55.8-32.216V72.89l55.8-32.217m0-1.154l-.5.288-55.8 32.215-.5.29v65.582l.5.29 55.8 32.215.5.29.5-.29 55.8-32.215.5-.29V72.312l-.5-.29-55.8-32.215-.5-.288z"/><path fill="none" stroke="#FFF" stroke-miterlimit="10" d="M1298.727 40.673v128.86M1354.525 137.318l-111.597-64.43M1242.928 137.318l111.597-64.43"/><path fill="#FFF" d="M148.375 437.932l102.592 59.233v118.46l-102.592 59.23-102.592-59.232v-118.46l102.592-59.23m0-2.124l-.92.53-102.59 59.23-.92.532v120.584l.92.53 102.59 59.23.92.532.92-.53 102.59-59.23.92-.532V496.103l-.92-.532-102.59-59.233-.92-.528z"/><path fill="none" stroke="#FFF" stroke-miterlimit="10" d="M148.375 437.932v236.924M250.967 615.623L45.783 497.163M45.783 615.623l205.184-118.46"/><path fill="#FFF" d="M372.664 137.304l28.913 16.693v33.385l-28.913 16.692-28.913-16.693v-33.384l28.914-16.692m0-.598l-.26.15-28.91 16.692-.26.15v33.983l.26.15 28.91 16.69.26.15.26-.15 28.91-16.69.26-.15V153.696l-.26-.148-28.91-16.694-.26-.148z"/><path fill="none" stroke="#FFF" stroke-miterlimit="10" d="M372.664 137.304v66.77M401.576 187.38l-57.825-33.384M343.75 187.38l57.826-33.384"/></svg>