<?xml version="1.0" encoding="utf-8"?>
<!-- Generator: Adobe Illustrator 15.1.0, SVG Export Plug-In . SVG Version: 6.00 Build 0)  -->
<!DOCTYPE svg PUBLIC "-//W3C//DTD SVG 1.1//EN" "http://www.w3.org/Graphics/SVG/1.1/DTD/svg11.dtd">
<svg version="1.1" id="Layer_1" xmlns="http://www.w3.org/2000/svg" xmlns:xlink="http://www.w3.org/1999/xlink" x="0px" y="0px"
	 width="158.74px" height="158.74px" viewBox="0 0 158.74 158.74" enable-background="new 0 0 158.74 158.74" xml:space="preserve">
<g>
	<path fill="#737678" d="M133.722,80.718l-0.654-0.655c0.471-0.336,0.916-0.713,1.334-1.131c4.095-4.095,4.095-10.757,0-14.851
		c-1.984-1.983-4.621-3.076-7.426-3.076c-0.398,0-0.794,0.022-1.184,0.066c0.344-3.069-0.658-6.26-3.006-8.607
		c-1.984-1.984-4.621-3.076-7.426-3.076c-0.441,0-0.879,0.028-1.309,0.081c0.051-0.432,0.079-0.867,0.079-1.308
		c0-2.805-1.093-5.444-3.076-7.425c-1.983-1.983-4.62-3.076-7.425-3.076c-0.404,0-0.808,0.022-1.205,0.068
		c0.061-0.454,0.09-0.915,0.09-1.379c0-2.806-1.092-5.442-3.076-7.426c-1.982-1.983-4.619-3.076-7.425-3.076
		c-2.805,0-5.441,1.092-7.425,3.076c-0.452,0.452-0.856,0.937-1.213,1.451l-8.804-8.804c-0.001-0.001-0.003-0.003-0.004-0.004
		s-0.003-0.003-0.004-0.004l-8.351-8.351c-1.482-1.484-3.455-2.3-5.552-2.3c-2.097,0-4.069,0.816-5.552,2.3L21.567,46.751
		c-1.484,1.482-2.3,3.455-2.3,5.552s0.816,4.069,2.3,5.552l8.348,8.348c0.002,0.002,0.004,0.005,0.006,0.007
		c0.003,0.002,0.005,0.004,0.008,0.007L44.78,81.067c-0.728,0.459-1.413,1.005-2.037,1.629c-2.198,2.197-3.409,5.12-3.409,8.229
		c0,3.596,1.614,6.918,4.436,9.142l9.786,9.786l20.935,20.935v14.757c0,1.262,1.025,2.287,2.288,2.287
		c1.262,0,2.287-1.025,2.287-2.287v-15.706c0-0.605-0.242-1.188-0.67-1.615l-21.606-21.606l-9.886-9.887
		c-0.069-0.069-0.145-0.135-0.223-0.195c-1.76-1.351-2.771-3.396-2.771-5.61c0-1.887,0.736-3.66,2.07-4.994
		c0.02-0.02,0.038-0.039,0.059-0.057c0.624-0.609,1.339-1.09,2.119-1.429c0.876-0.382,1.832-0.583,2.818-0.583h3.07h13.684h7.782
		c2.886,0,5.373,1.74,6.467,4.225c0.384,0.869,0.597,1.83,0.597,2.838c0,3.896-3.169,7.065-7.063,7.065H68.17h-5.413
		c-0.313,0-0.609,0.062-0.882,0.175c-0.825,0.346-1.405,1.16-1.405,2.112c0,1.263,1.023,2.287,2.288,2.287h3.517l14.099,14.099
		c0.002,0.002,0.002,0.002,0.004,0.004c0.001,0.001,0.001,0.001,0.003,0.003l8.695,8.695c1.484,1.482,3.457,2.3,5.554,2.3
		s4.069-0.818,5.552-2.3l27.932-27.932c1.332,2.479,2.088,5.313,2.088,8.32c0,5.394-2.421,10.422-6.645,13.797
		c-0.717,0.573-1.02,1.519-0.775,2.399v23.595c0,1.262,1.024,2.287,2.287,2.287s2.287-1.025,2.287-2.287v-23.217
		c4.732-4.219,7.42-10.194,7.42-16.574c0-4.276-1.213-8.274-3.315-11.667l2.263-2.264C136.785,88.761,136.785,83.781,133.722,80.718
		z M126.976,65.58c1.583,0,3.072,0.617,4.192,1.735c2.31,2.311,2.312,6.071,0,8.382c-0.425,0.424-0.902,0.776-1.418,1.048
		l-4.727-4.725l-3.286-3.288c0.272-0.516,0.624-0.994,1.049-1.418C123.906,66.196,125.394,65.58,126.976,65.58z M115.361,53.962
		c1.582,0,3.07,0.617,4.189,1.736c2.312,2.311,2.312,6.071,0,8.382c-0.424,0.423-0.901,0.776-1.416,1.048l-8.014-8.013
		c0.272-0.516,0.625-0.993,1.05-1.418C112.289,54.579,113.778,53.962,115.361,53.962z M103.63,42.233
		c1.582,0,3.072,0.617,4.191,1.735c1.118,1.12,1.734,2.607,1.734,4.192c0,1.583-0.616,3.07-1.736,4.19
		c-0.424,0.425-0.902,0.776-1.416,1.049l-8.015-8.013c0.272-0.516,0.626-0.994,1.05-1.418
		C100.56,42.848,102.046,42.233,103.63,42.233z M87.822,32.157c1.12-1.12,2.609-1.736,4.192-1.736s3.07,0.616,4.19,1.736
		c1.12,1.118,1.736,2.607,1.736,4.19c0,1.583-0.616,3.07-1.736,4.19c-0.459,0.459-0.982,0.834-1.548,1.116l-7.947-7.949
		C86.986,33.145,87.357,32.622,87.822,32.157z M23.841,52.303c0-0.875,0.341-1.698,0.961-2.316l33.542-33.542
		c0.618-0.621,1.442-0.961,2.316-0.961s1.698,0.34,2.316,0.961l6.738,6.737L31.54,61.357l-6.737-6.738
		C24.182,54.001,23.841,53.177,23.841,52.303z M75.509,102.563c6.417,0,11.638-5.222,11.638-11.639c0-0.997-0.126-1.965-0.364-2.889
		c-0.434-1.698-1.244-3.248-2.334-4.555c-2.137-2.562-5.351-4.194-8.939-4.194H50.974c-0.478,0-0.952,0.029-1.42,0.086
		L34.774,64.592v0L72.95,26.417l0,0l8.64,8.641l11.64,11.639c-0.004,0.029-0.008,0.057-0.012,0.084
		c0.027-0.003,0.057-0.007,0.086-0.009l11.656,11.654c-0.008,0.053-0.015,0.104-0.022,0.155c0.052-0.005,0.103-0.013,0.155-0.02
		l11.482,11.48c-0.013,0.093-0.025,0.188-0.035,0.283c0.096-0.009,0.19-0.022,0.284-0.035l3.347,3.349l-2.584,2.583v0.002
		l-7.291,7.29l-4.537,4.536l-23.765,23.764l-9.25-9.25H75.509z M125.405,93.671L96.946,122.13c-0.618,0.618-1.442,0.96-2.316,0.96
		c-0.877,0-1.698-0.342-2.319-0.96l-7.081-7.082l26.948-26.947l4.235-4.236l4.09-4.089l2.903-2.904l5.036,5.035l2.046,2.046
		c1.277,1.279,1.279,3.358,0,4.635l-1.848,1.849L125.405,93.671z"/>
	<path fill="#737678" d="M111.83,96.137l-7.334,7.334c-0.893,0.893-0.893,2.341,0,3.235c0.447,0.446,1.032,0.67,1.617,0.67
		c0.586,0,1.171-0.224,1.617-0.67l7.334-7.334c0.894-0.893,0.894-2.341,0-3.235C114.171,95.244,112.722,95.245,111.83,96.137z"/>
</g>
</svg>
