<?xml version="1.0" encoding="utf-8"?>
<!-- Generator: Adobe Illustrator 15.1.0, SVG Export Plug-In . SVG Version: 6.00 Build 0)  -->
<!DOCTYPE svg PUBLIC "-//W3C//DTD SVG 1.1//EN" "http://www.w3.org/Graphics/SVG/1.1/DTD/svg11.dtd">
<svg version="1.1" id="Layer_1" xmlns="http://www.w3.org/2000/svg" xmlns:xlink="http://www.w3.org/1999/xlink" x="0px" y="0px"
	 width="158.74px" height="158.74px" viewBox="0 0 158.74 158.74" enable-background="new 0 0 158.74 158.74" xml:space="preserve">
<g>
	<path fill="#737678" d="M101.345,96.404c-12.084-9.912-25.141-16.802-29.177-18.831V59.597c2.652-2.201,4.169-5.444,4.169-8.928
		V29.954C76.337,18.4,66.938,9,55.383,9h-4.458c-11.554,0-20.953,9.4-20.953,20.954v20.716c0,3.452,1.517,6.695,4.168,8.926v17.978
		c-4.037,2.03-17.097,8.922-29.177,18.832c-2.856,2.358-4.495,5.828-4.495,9.518v14.206c0,1.263,1.027,2.29,2.29,2.29
		s2.29-1.027,2.29-2.29v-14.206c0-2.333,1.027-4.521,2.817-6.002c12.717-10.438,26.427-17.34,29.044-18.617
		c1.117-0.54,1.811-1.649,1.811-2.895V58.431c0-0.778-0.386-1.492-1.03-1.909c-1.965-1.3-3.139-3.488-3.139-5.852V29.954
		c0-9.029,7.345-16.374,16.374-16.374h4.458c9.028,0,16.374,7.345,16.374,16.374v20.715c0,2.344-1.174,4.532-3.136,5.85
		c-0.647,0.419-1.033,1.133-1.033,1.911v19.978c0,1.246,0.693,2.355,1.809,2.895c2.619,1.277,16.326,8.178,29.045,18.617
		c1.791,1.482,2.818,3.67,2.818,6.003v14.206c0,1.263,1.027,2.29,2.289,2.29c1.264,0,2.291-1.027,2.291-2.29v-14.207
		C105.839,102.205,104.2,98.735,101.345,96.404z"/>
	<path fill="#737678" d="M148.22,12.143H101.24c-5.524,0-10.019,4.495-10.019,10.019V50.83c0,5.524,4.494,10.018,10.019,10.018
		h3.771v11.403c0,0.934,0.543,1.759,1.392,2.106c0.329,0.124,0.623,0.184,0.898,0.184c0.577,0,1.144-0.228,1.6-0.646l13.651-13.046
		h25.7c5.524,0,10.019-4.494,10.019-10.019V22.161C158.271,16.637,153.762,12.143,148.22,12.143z M107.333,56.268h-6.061
		c-2.999,0-5.438-2.439-5.438-5.438V22.161c0-2.999,2.439-5.438,5.438-5.438h46.979c2.999,0,5.438,2.44,5.438,5.438V50.83
		c0,2.999-2.439,5.438-5.438,5.438h-26.616c-0.577,0-1.143,0.228-1.6,0.647l-10.413,9.988v-8.346
		C109.623,57.295,108.596,56.268,107.333,56.268z"/>
	<path fill="#737678" d="M108.263,33.142h32.935c1.263,0,2.29-1.027,2.29-2.29s-1.027-2.29-2.29-2.29h-32.935
		c-1.262,0-2.289,1.027-2.289,2.29S107.001,33.142,108.263,33.142z"/>
	<path fill="#737678" d="M143.487,42.588c0-1.263-1.027-2.29-2.29-2.29h-32.935c-1.262,0-2.289,1.027-2.289,2.29
		s1.027,2.29,2.289,2.29h32.935C142.46,44.878,143.487,43.851,143.487,42.588z"/>
	<path fill="#737678" d="M60.539,90.062c-0.093-1.191-1.086-2.11-2.28-2.11h-6.953c-1.194,0-2.188,0.919-2.28,2.11l-3.721,47.758
		c-0.048,0.618,0.157,1.229,0.567,1.692l7.197,8.139c0.434,0.491,1.058,0.772,1.713,0.772s1.279-0.281,1.713-0.772l7.197-8.139
		c0.411-0.464,0.615-1.075,0.567-1.692L60.539,90.062z M54.782,142.683l-4.841-5.475l3.481-44.682h2.721l3.481,44.682
		L54.782,142.683z"/>
</g>
</svg>
