<?xml version="1.0" encoding="utf-8"?>
<!-- Generator: Adobe Illustrator 15.1.0, SVG Export Plug-In . SVG Version: 6.00 Build 0)  -->
<!DOCTYPE svg PUBLIC "-//W3C//DTD SVG 1.1//EN" "http://www.w3.org/Graphics/SVG/1.1/DTD/svg11.dtd">
<svg version="1.1" id="Layer_1" xmlns="http://www.w3.org/2000/svg" xmlns:xlink="http://www.w3.org/1999/xlink" x="0px" y="0px"
	 width="1101px" height="425.252px" viewBox="0 0 1101 425.252" enable-background="new 0 0 1101 425.252" xml:space="preserve">
<g>
	<rect x="126.607" y="21.338" fill="#206B6A" width="34.554" height="22.5"/>
	<polygon fill="#40AAAF" points="126.607,14.22 143.883,4.012 161.161,14.22 161.161,34.636 143.883,44.842 126.607,34.636 	"/>
	<polygon fill="#F3F3F3" points="144.285,282.498 176.979,282.498 161.062,51.873 144.285,51.873 	"/>
	<polygon fill="#CDCCCC" points="173.52,282.498 176.979,282.498 161.062,51.873 158.461,51.873 	"/>
	<polygon fill="#E6E6E5" points="144.285,282.498 109.959,282.498 125.877,51.873 144.285,51.873 	"/>
	<path fill="#2A4351" d="M149.92,108.915c0-3.327-2.705-6.027-6.033-6.027s-6.029,2.7-6.029,6.027c0,0.005,0,0.008,0,0.008v0.004
		v8.036h12.054v-7.877C149.912,109.028,149.92,108.973,149.92,108.915z"/>
	<path fill="#F3F3F3" d="M154.33,21.338c-2.439,0-4.419,1.977-4.419,4.414v0.01v0.588v5.299v0.757c0,0.042-0.003,0.082-0.003,0.125
		c0,2.438,1.984,4.415,4.422,4.415c2.439,0,4.42-1.977,4.42-4.415v-0.009v-0.873V26.35v-0.473c0-0.041,0.002-0.082,0.002-0.125
		C158.752,23.314,156.768,21.338,154.33,21.338z"/>
	<path fill="#2A4351" d="M149.92,186.861c0-3.328-2.705-6.027-6.033-6.027s-6.029,2.699-6.029,6.027v0.012l0,0v8.035h12.054v-7.876
		C149.912,186.975,149.92,186.918,149.92,186.861z"/>
	<rect x="120.982" y="40.623" fill="#F3F3F3" width="46.607" height="9.643"/>
	<polygon fill="#CDCCCC" points="123.388,51.873 163.967,51.873 167.679,50.266 120.801,50.266 	"/>
	<rect x="120.982" y="40.623" fill="#E6E6E5" width="14.062" height="9.643"/>
	<rect x="165.628" y="40.623" fill="#CDCCCC" width="1.962" height="9.643"/>
	<rect x="125.803" y="14.105" fill="#44ACB0" width="36.162" height="1.607"/>
	<rect x="125.803" y="14.105" fill="#40AAAF" width="18.482" height="1.607"/>
	<rect x="144.285" y="14.105" fill="#40AAAF" width="14.465" height="1.607"/>
	<polygon fill="#92D0C5" points="143.883,4.012 129.421,14.105 126.607,14.105 	"/>
	<polygon fill="#337D7C" points="143.98,4.012 158.75,14.105 161.161,14.105 	"/>
	<rect x="126.607" y="15.713" fill="#40AAAF" width="17.678" height="18.481"/>
	<rect x="159.453" y="15.713" fill="#337D7C" width="1.708" height="24.91"/>
	<rect x="126.607" y="15.713" fill="#337D7C" width="32.846" height="0.803"/>
	<rect x="136.25" y="116.963" fill="#CDCCCC" width="15.268" height="3.214"/>
	<rect x="136.25" y="194.908" fill="#CDCCCC" width="15.268" height="3.215"/>
	<rect x="136.25" y="120.177" fill="#B4B4B4" width="15.268" height="1.606"/>
	<rect x="136.25" y="198.123" fill="#B4B4B4" width="15.268" height="1.607"/>
	<polygon fill="#CDCCCC" points="184.732,249.552 102.768,249.552 98.482,282.498 188.482,282.498 	"/>
	<rect x="106.518" y="239.908" fill="#C8B299" width="76.34" height="0.805"/>
	<rect x="121.785" y="33.391" fill="#C8B299" width="44.197" height="0.804"/>
	<rect x="121.785" y="36.945" fill="#C8B299" width="44.197" height="0.803"/>
	<rect x="108.125" y="239.908" fill="#C8B299" width="0.804" height="9.644"/>
	<rect x="180.446" y="239.908" fill="#C8B299" width="0.804" height="9.644"/>
	<rect x="142.679" y="239.908" fill="#C8B299" width="0.804" height="9.644"/>
	<rect x="117.768" y="239.908" fill="#C8B299" width="0.804" height="9.644"/>
	<rect x="129.821" y="239.908" fill="#C8B299" width="0.804" height="9.644"/>
	<rect x="155.535" y="239.908" fill="#C8B299" width="0.805" height="9.644"/>
	<rect x="167.59" y="239.908" fill="#C8B299" width="0.803" height="9.644"/>
	<rect x="106.518" y="244.73" fill="#C8B299" width="76.34" height="0.803"/>
	<rect x="102.768" y="249.552" fill="#C8B299" width="81.965" height="0.804"/>
	<rect x="101.596" y="250.355" fill="#998776" width="84.123" height="1.707"/>
	<rect x="123.393" y="33.391" fill="#C8B299" width="0.804" height="7.232"/>
	<rect x="143.883" y="33.391" fill="#C8B299" width="0.805" height="7.232"/>
	<rect x="129.421" y="33.391" fill="#C8B299" width="0.804" height="7.232"/>
	<rect x="136.518" y="33.391" fill="#C8B299" width="0.805" height="7.232"/>
	<rect x="150.377" y="33.391" fill="#C8B299" width="0.803" height="7.232"/>
	<rect x="157.658" y="33.391" fill="#C8B299" width="0.803" height="7.232"/>
	<rect x="164.041" y="33.391" fill="#C8B299" width="0.804" height="7.232"/>
	<rect x="167.537" y="269.691" fill="#BCBCBC" width="18.885" height="1.607"/>
	<polygon fill="#B4B4B4" points="188.482,282.498 185.018,252.062 181.92,252.062 185.201,282.498 	"/>
	<rect x="115.759" y="258.994" fill="#BCBCBC" width="4.42" height="1.606"/>
	<rect x="123.176" y="266.477" fill="#BCBCBC" width="4.42" height="1.607"/>
	<rect x="125.385" y="268.084" fill="#BCBCBC" width="4.42" height="1.607"/>
	<rect x="106.518" y="275.072" fill="#BCBCBC" width="10.246" height="1.607"/>
	<rect x="145.09" y="262.208" fill="#BCBCBC" width="4.419" height="1.606"/>
	<rect x="135.647" y="258.994" fill="#BCBCBC" width="18.884" height="1.606"/>
	<rect x="142.679" y="260.601" fill="#BCBCBC" width="18.884" height="1.607"/>
	<rect x="112.545" y="276.68" fill="#BCBCBC" width="4.42" height="1.607"/>
</g>
<rect x="-66.332" y="282.418" fill="#989898" width="332.668" height="18.334"/>
<polygon fill="#E1ECEC" points="-0.334,277.11 75.666,291.774 152.268,278.252 208.334,288.752 251,282.754 296.385,293.752 
	377.666,281.42 429.68,298.752 522.673,282.752 581.143,268.461 642.666,288.086 695,276.752 760.5,289.752 834.334,293.752 
	910.334,276.086 961.666,293.752 1020.666,282.752 1089.666,301.42 1089.666,388.752 -0.334,389.754 "/>
<linearGradient id="SVGID_1_" gradientUnits="userSpaceOnUse" x1="526.3901" y1="397.752" x2="526.3901" y2="283.4609">
	<stop  offset="0" style="stop-color:#FFFFFF"/>
	<stop  offset="1" style="stop-color:#C0D7DC"/>
</linearGradient>
<polygon fill="url(#SVGID_1_)" points="1100.666,291.34 1020.599,304.698 939.896,292.38 880.832,301.945 835.883,296.48 
	788.066,306.5 702.436,295.266 647.639,311.055 549.67,296.48 488.07,283.461 423.255,301.339 368.119,291.014 299.115,302.856 
	221.33,306.5 141.264,290.407 87.183,306.5 25.191,296.48 -47.334,313.485 -47.887,397.752 1099.557,397.752 "/>
<g>
	<g opacity="0.5">
		<g>
			<g>
				
					<line fill="none" stroke="#676767" stroke-width="3" stroke-miterlimit="10" x1="1148" y1="330.252" x2="1253.399" y2="308.252"/>
				<g>
					<circle fill="#676767" cx="1148" cy="330.252" r="3.384"/>
				</g>
				<g>
					<circle fill="#676767" cx="1253.399" cy="308.252" r="3.384"/>
				</g>
			</g>
		</g>
		<g>
			<g>
				<line fill="none" stroke="#9BC997" stroke-width="3" stroke-miterlimit="10" x1="1054" y1="376.252" x2="1148" y2="330.252"/>
				<g>
					<circle fill="#9BC997" cx="1054" cy="376.252" r="3.383"/>
				</g>
			</g>
		</g>
		<g>
			<g>
				<line fill="none" stroke="#F37576" stroke-width="3" stroke-miterlimit="10" x1="876" y1="304.932" x2="1054" y2="376.252"/>
				<g>
					<circle fill="#F37576" cx="876" cy="304.932" r="3.384"/>
				</g>
			</g>
		</g>
		<g>
			<g>
				<line fill="none" stroke="#9BC997" stroke-width="3" stroke-miterlimit="10" x1="745" y1="374.252" x2="876" y2="304.932"/>
				<g>
					<circle fill="#9BC997" cx="745" cy="374.252" r="3.384"/>
				</g>
			</g>
		</g>
		<g>
			<g>
				<line fill="none" stroke="#F37576" stroke-width="3" stroke-miterlimit="10" x1="599" y1="289.752" x2="745" y2="374.252"/>
				<g>
					<circle fill="#F37576" cx="599" cy="289.752" r="3.384"/>
				</g>
			</g>
		</g>
		<g>
			<g>
				<line fill="none" stroke="#9BC997" stroke-width="3" stroke-miterlimit="10" x1="473" y1="364.252" x2="599" y2="289.752"/>
				<g>
					<circle fill="#9BC997" cx="473" cy="364.252" r="3.384"/>
				</g>
			</g>
		</g>
		<g>
			<g>
				<line fill="none" stroke="#9BC997" stroke-width="3" stroke-miterlimit="10" x1="309" y1="385.194" x2="473" y2="364.252"/>
				<g>
					<circle fill="#9BC997" cx="309" cy="385.194" r="3.384"/>
				</g>
			</g>
		</g>
		<g>
			<g>
				<line fill="none" stroke="#F37576" stroke-width="3" stroke-miterlimit="10" x1="193" y1="318.752" x2="309" y2="385.194"/>
				<g>
					<circle fill="#F37576" cx="193" cy="318.752" r="3.384"/>
				</g>
			</g>
		</g>
		<g>
			<g>
				<line fill="none" stroke="#9BC997" stroke-width="3" stroke-miterlimit="10" x1="62.959" y1="334.252" x2="193" y2="318.752"/>
				<g>
					<circle fill="#9BC997" cx="62.959" cy="334.252" r="3.384"/>
				</g>
			</g>
		</g>
		
			<line fill="none" stroke="#F37576" stroke-width="3" stroke-miterlimit="10" x1="-43.334" y1="281.727" x2="62.959" y2="334.252"/>
	</g>
	<g>
		<g>
			<g>
				<line fill="none" stroke="#9BC997" stroke-miterlimit="10" x1="1028.383" y1="375.676" x2="1107" y2="387.362"/>
				<g>
					<circle fill="#9BC997" cx="1028.383" cy="375.676" r="1.88"/>
				</g>
			</g>
		</g>
		<g>
			<g>
				<line fill="none" stroke="#9BC997" stroke-miterlimit="10" x1="912.584" y1="334.243" x2="1028.383" y2="375.676"/>
				<g>
					<circle fill="#9BC997" cx="912.584" cy="334.243" r="1.88"/>
				</g>
			</g>
		</g>
		<g>
			<g>
				<line fill="none" stroke="#9BC997" stroke-miterlimit="10" x1="795.722" y1="387.362" x2="912.584" y2="334.243"/>
				<g>
					<circle fill="#9BC997" cx="795.722" cy="387.362" r="1.88"/>
				</g>
			</g>
		</g>
		<g>
			<g>
				<line fill="none" stroke="#9BC997" stroke-miterlimit="10" x1="612.992" y1="309.809" x2="795.722" y2="387.362"/>
				<g>
					<circle fill="#9BC997" cx="612.992" cy="309.809" r="1.88"/>
				</g>
			</g>
		</g>
		<g>
			<g>
				<line fill="none" stroke="#9BC997" stroke-miterlimit="10" x1="480.195" y1="380.988" x2="612.992" y2="309.809"/>
				<g>
					<circle fill="#9BC997" cx="480.195" cy="380.988" r="1.88"/>
				</g>
			</g>
		</g>
		<g>
			<g>
				<line fill="none" stroke="#9BC997" stroke-miterlimit="10" x1="359.084" y1="311.934" x2="480.195" y2="380.988"/>
				<g>
					<circle fill="#9BC997" cx="359.084" cy="311.934" r="1.88"/>
				</g>
			</g>
		</g>
		<g>
			<g>
				<line fill="none" stroke="#9BC997" stroke-miterlimit="10" x1="228.41" y1="344.867" x2="359.084" y2="311.934"/>
				<g>
					<circle fill="#9BC997" cx="228.41" cy="344.867" r="1.88"/>
				</g>
			</g>
		</g>
		<g>
			<g>
				<line fill="none" stroke="#9BC997" stroke-miterlimit="10" x1="120.047" y1="283.297" x2="228.41" y2="344.867"/>
				<g>
					<circle fill="#9BC997" cx="120.047" cy="283.297" r="1.88"/>
				</g>
			</g>
		</g>
		<g>
			<g>
				<line fill="none" stroke="#9BC997" stroke-miterlimit="10" x1="0" y1="365.053" x2="120.047" y2="283.297"/>
				<g>
					<circle fill="#9BC997" cx="0" cy="365.053" r="1.88"/>
				</g>
			</g>
		</g>
	</g>
	<g opacity="0.3">
		<g>
			<g>
				<line fill="none" stroke="#676767" stroke-miterlimit="10" x1="899.365" y1="300.975" x2="937.387" y2="306.627"/>
				<g>
					<circle fill="#676767" cx="899.365" cy="300.975" r="1.88"/>
				</g>
			</g>
		</g>
		<g>
			<g>
				<line fill="none" stroke="#676767" stroke-miterlimit="10" x1="843.359" y1="280.937" x2="899.365" y2="300.975"/>
				<g>
					<circle fill="#676767" cx="843.359" cy="280.937" r="1.88"/>
				</g>
			</g>
		</g>
		<g>
			<g>
				<line fill="none" stroke="#676767" stroke-miterlimit="10" x1="786.84" y1="306.627" x2="843.359" y2="280.937"/>
				<g>
					<circle fill="#676767" cx="786.84" cy="306.627" r="1.88"/>
				</g>
			</g>
		</g>
		<g>
			<g>
				<line fill="none" stroke="#676767" stroke-miterlimit="10" x1="698.466" y1="269.119" x2="786.84" y2="306.627"/>
				<g>
					<circle fill="#676767" cx="698.466" cy="269.119" r="1.88"/>
				</g>
			</g>
		</g>
		<g>
			<g>
				<line fill="none" stroke="#676767" stroke-miterlimit="10" x1="634.24" y1="303.545" x2="698.466" y2="269.119"/>
				<g>
					<circle fill="#676767" cx="634.24" cy="303.545" r="1.88"/>
				</g>
			</g>
		</g>
		<g>
			<g>
				<line fill="none" stroke="#676767" stroke-miterlimit="10" x1="575.666" y1="270.146" x2="634.24" y2="303.545"/>
				<g>
					<circle fill="#676767" cx="575.666" cy="270.146" r="1.88"/>
				</g>
			</g>
		</g>
		<g>
			<g>
				<line fill="none" stroke="#676767" stroke-miterlimit="10" x1="512.467" y1="286.074" x2="575.666" y2="270.146"/>
				<g>
					<circle fill="#676767" cx="512.467" cy="286.074" r="1.88"/>
				</g>
			</g>
		</g>
		<g>
			<g>
				<line fill="none" stroke="#676767" stroke-miterlimit="10" x1="460.059" y1="256.297" x2="512.467" y2="286.074"/>
				<g>
					<circle fill="#676767" cx="460.059" cy="256.297" r="1.88"/>
				</g>
			</g>
		</g>
		<g>
			<g>
				<line fill="none" stroke="#676767" stroke-miterlimit="10" x1="402" y1="295.838" x2="460.059" y2="256.297"/>
				<g>
					<circle fill="#676767" cx="402" cy="295.838" r="1.88"/>
				</g>
			</g>
		</g>
	</g>
	<g opacity="0.3">
		<g>
			<g>
				<line fill="none" stroke="#FFFFFF" stroke-miterlimit="10" x1="905" y1="402.252" x2="979" y2="413.252"/>
				<g>
					<circle fill="#FFFFFF" cx="905" cy="402.252" r="1.88"/>
				</g>
			</g>
		</g>
		<g>
			<g>
				<line fill="none" stroke="#FFFFFF" stroke-miterlimit="10" x1="796" y1="363.252" x2="905" y2="402.252"/>
				<g>
					<circle fill="#FFFFFF" cx="796" cy="363.252" r="1.879"/>
				</g>
			</g>
		</g>
		<g>
			<g>
				<line fill="none" stroke="#FFFFFF" stroke-miterlimit="10" x1="686" y1="413.252" x2="796" y2="363.252"/>
				<g>
					<circle fill="#FFFFFF" cx="686" cy="413.252" r="1.88"/>
				</g>
			</g>
		</g>
		<g>
			<g>
				<line fill="none" stroke="#FFFFFF" stroke-miterlimit="10" x1="514" y1="340.252" x2="686" y2="413.252"/>
				<g>
					<circle fill="#FFFFFF" cx="514" cy="340.252" r="1.88"/>
				</g>
			</g>
		</g>
		<g>
			<g>
				<line fill="none" stroke="#FFFFFF" stroke-miterlimit="10" x1="389" y1="407.252" x2="514" y2="340.252"/>
				<g>
					<circle fill="#FFFFFF" cx="389" cy="407.252" r="1.88"/>
				</g>
			</g>
		</g>
		<g>
			<g>
				<line fill="none" stroke="#FFFFFF" stroke-miterlimit="10" x1="275" y1="342.252" x2="389" y2="407.252"/>
				<g>
					<circle fill="#FFFFFF" cx="275" cy="342.252" r="1.88"/>
				</g>
			</g>
		</g>
		<g>
			<g>
				<line fill="none" stroke="#FFFFFF" stroke-miterlimit="10" x1="152" y1="373.252" x2="275" y2="342.252"/>
				<g>
					<circle fill="#FFFFFF" cx="152" cy="373.252" r="1.88"/>
				</g>
			</g>
		</g>
		<g>
			<g>
				<line fill="none" stroke="#FFFFFF" stroke-miterlimit="10" x1="50" y1="315.297" x2="152" y2="373.252"/>
				<g>
					<circle fill="#FFFFFF" cx="50" cy="315.297" r="1.88"/>
				</g>
			</g>
		</g>
		<g>
			<g>
				<line fill="none" stroke="#FFFFFF" stroke-miterlimit="10" x1="-63" y1="392.252" x2="50" y2="315.297"/>
				<g>
					<circle fill="#FFFFFF" cx="-63" cy="392.252" r="1.88"/>
				</g>
			</g>
		</g>
	</g>
	<g>
		<g>
			<g>
				<line fill="none" stroke="#FFFFFF" stroke-miterlimit="10" x1="139" y1="368.252" x2="-0.334" y2="369.405"/>
				<g>
					<circle fill="#FFFFFF" cx="139" cy="368.252" r="1.88"/>
				</g>
			</g>
		</g>
		<g>
			<g>
				<line fill="none" stroke="#FFFFFF" stroke-miterlimit="10" x1="248" y1="329.252" x2="139" y2="368.252"/>
				<g>
					<circle fill="#FFFFFF" cx="248" cy="329.252" r="1.879"/>
				</g>
			</g>
		</g>
		<g>
			<g>
				<line fill="none" stroke="#FFFFFF" stroke-miterlimit="10" x1="358" y1="379.252" x2="248" y2="329.252"/>
				<g>
					<circle fill="#FFFFFF" cx="358" cy="379.252" r="1.879"/>
				</g>
			</g>
		</g>
		<g>
			<g>
				<line fill="none" stroke="#FFFFFF" stroke-miterlimit="10" x1="530" y1="306.252" x2="358" y2="379.252"/>
				<g>
					<circle fill="#FFFFFF" cx="530" cy="306.252" r="1.88"/>
				</g>
			</g>
		</g>
		<g>
			<g>
				<line fill="none" stroke="#FFFFFF" stroke-miterlimit="10" x1="655" y1="373.252" x2="530" y2="306.252"/>
				<g>
					<circle fill="#FFFFFF" cx="655" cy="373.252" r="1.88"/>
				</g>
			</g>
		</g>
		<g>
			<g>
				<line fill="none" stroke="#FFFFFF" stroke-miterlimit="10" x1="769" y1="308.252" x2="655" y2="373.252"/>
				<g>
					<circle fill="#FFFFFF" cx="769" cy="308.252" r="1.88"/>
				</g>
			</g>
		</g>
		<g>
			<g>
				<line fill="none" stroke="#FFFFFF" stroke-miterlimit="10" x1="892" y1="339.252" x2="769" y2="308.252"/>
				<g>
					<circle fill="#FFFFFF" cx="892" cy="339.252" r="1.88"/>
				</g>
			</g>
		</g>
		<g>
			<g>
				<line fill="none" stroke="#FFFFFF" stroke-miterlimit="10" x1="994" y1="281.297" x2="892" y2="339.252"/>
				<g>
					<circle fill="#FFFFFF" cx="994" cy="281.297" r="1.88"/>
				</g>
			</g>
		</g>
		<g>
			<g>
				<line fill="none" stroke="#FFFFFF" stroke-miterlimit="10" x1="1107" y1="358.252" x2="994" y2="281.297"/>
				<g>
					<circle fill="#FFFFFF" cx="1107" cy="358.252" r="1.88"/>
				</g>
			</g>
		</g>
	</g>
	<g opacity="0.5">
		<g>
			<g>
				<line fill="none" stroke="#5A7588" stroke-miterlimit="10" x1="1013" y1="320.002" x2="1105" y2="267.252"/>
				<g>
					<circle fill="#5A7588" cx="1013" cy="320.002" r="1.88"/>
				</g>
			</g>
		</g>
		<g>
			<g>
				<line fill="none" stroke="#5A7588" stroke-miterlimit="10" x1="903" y1="318.774" x2="1013" y2="320.002"/>
				<g>
					<circle fill="#5A7588" cx="903" cy="318.774" r="1.88"/>
				</g>
			</g>
		</g>
		<g>
			<g>
				<line fill="none" stroke="#5A7588" stroke-miterlimit="10" x1="810" y1="280.297" x2="903" y2="318.774"/>
				<g>
					<circle fill="#5A7588" cx="810" cy="280.297" r="1.88"/>
				</g>
			</g>
		</g>
		<g>
			<g>
				<line fill="none" stroke="#5A7588" stroke-miterlimit="10" x1="725" y1="305.252" x2="810" y2="280.297"/>
				<g>
					<circle fill="#5A7588" cx="725" cy="305.252" r="1.88"/>
				</g>
			</g>
		</g>
		<g>
			<g>
				<line fill="none" stroke="#5A7588" stroke-miterlimit="10" x1="639" y1="279.252" x2="725" y2="305.252"/>
				<g>
					<circle fill="#5A7588" cx="639" cy="279.252" r="1.88"/>
				</g>
			</g>
		</g>
		<g>
			<g>
				<line fill="none" stroke="#5A7588" stroke-miterlimit="10" x1="526" y1="317.002" x2="639" y2="279.252"/>
				<g>
					<circle fill="#5A7588" cx="526" cy="317.002" r="1.88"/>
				</g>
			</g>
		</g>
		<g>
			<g>
				<line fill="none" stroke="#5A7588" stroke-miterlimit="10" x1="418" y1="328.252" x2="526" y2="317.002"/>
				<g>
					<circle fill="#5A7588" cx="418" cy="328.252" r="1.88"/>
				</g>
			</g>
		</g>
		<g>
			<g>
				<line fill="none" stroke="#5A7588" stroke-miterlimit="10" x1="347" y1="292.252" x2="418" y2="328.252"/>
				<g>
					<circle fill="#5A7588" cx="347" cy="292.252" r="1.88"/>
				</g>
			</g>
		</g>
		<g>
			<g>
				<line fill="none" stroke="#5A7588" stroke-miterlimit="10" x1="245" y1="341.752" x2="347" y2="292.252"/>
				<g>
					<circle fill="#5A7588" cx="245" cy="341.752" r="1.88"/>
				</g>
			</g>
		</g>
	</g>
</g>
<linearGradient id="SVGID_2_" gradientUnits="userSpaceOnUse" x1="-1574.334" y1="30.0215" x2="-1226.334" y2="30.0215" gradientTransform="matrix(-1 0 0 1 -1074.668 0)">
	<stop  offset="0" style="stop-color:#FAED24;stop-opacity:0"/>
	<stop  offset="1" style="stop-color:#FAED24;stop-opacity:0.3"/>
</linearGradient>
<polygon fill="url(#SVGID_2_)" points="499.666,0 499.666,29.17 499.666,60.043 151.666,35.005 151.666,29.17 151.666,23.92 "/>
</svg>
