<?xml version="1.0" encoding="utf-8"?>
<!-- Generator: Adobe Illustrator 15.1.0, SVG Export Plug-In . SVG Version: 6.00 Build 0)  -->
<!DOCTYPE svg PUBLIC "-//W3C//DTD SVG 1.1//EN" "http://www.w3.org/Graphics/SVG/1.1/DTD/svg11.dtd">
<svg version="1.1" id="Layer_1" xmlns="http://www.w3.org/2000/svg" xmlns:xlink="http://www.w3.org/1999/xlink" x="0px" y="0px"
	 width="158.74px" height="158.74px" viewBox="0 0 158.74 158.74" enable-background="new 0 0 158.74 158.74" xml:space="preserve">
<g>
	<path fill="#737678" d="M106.869,39.975c1.361,0,2.479-1.117,2.479-2.48V26.729c0-7.74-6.296-14.009-14.009-14.009H42.357
		c-7.74,0-14.009,6.295-14.009,14.009v86.069c0,1.362,1.118,2.48,2.48,2.48c1.362,0,2.48-1.117,2.48-2.48V26.729
		c0-5.015,4.061-9.076,9.076-9.076H95.34c5.015,0,9.076,4.061,9.076,9.076v2.944H42.167c-1.362,0-2.48,1.117-2.48,2.48
		c0,1.363,1.117,2.48,2.48,2.48h62.249v2.889C104.389,38.884,105.506,39.975,106.869,39.975z"/>
	<path fill="#737678" d="M109.199,131.385v-22.676c0-1.362-1.117-2.48-2.48-2.48s-2.48,1.118-2.48,2.48v22.676
		c0,4.769-3.107,9.73-8.312,9.73H42.971c-4.987,0-9.539-4.633-9.539-9.73v-4.006h60.396c1.362,0,2.48-1.117,2.48-2.48
		c0-1.363-1.117-2.48-2.48-2.48H30.979c-1.362,0-2.48,1.117-2.48,2.48v6.459c0,7.822,6.759,14.663,14.472,14.663h52.955
		C103.367,146.048,109.199,139.616,109.199,131.385z"/>
	<g>
		<path fill="#737678" d="M128.013,55.805H78.974c-1.263,0-2.287-1.024-2.287-2.287s1.024-2.287,2.287-2.287h49.039
			c1.263,0,2.287,1.024,2.287,2.287S129.275,55.805,128.013,55.805z"/>
		<path fill="#737678" d="M54.413,60.197c-0.615,0-1.228-0.247-1.677-0.731l-4.392-4.729c-0.859-0.925-0.806-2.373,0.12-3.232
			c0.926-0.859,2.373-0.805,3.232,0.12l2.922,3.147l8.962-7.407c0.974-0.805,2.416-0.668,3.22,0.306
			c0.805,0.974,0.668,2.416-0.306,3.22L55.87,59.673C55.444,60.024,54.928,60.197,54.413,60.197z"/>
	</g>
	<g>
		<path fill="#737678" d="M128.013,79.096H78.974c-1.263,0-2.287-1.023-2.287-2.287c0-1.263,1.024-2.287,2.287-2.287h49.039
			c1.263,0,2.287,1.024,2.287,2.287C130.3,78.072,129.275,79.096,128.013,79.096z"/>
		<path fill="#737678" d="M54.413,83.487c-0.615,0-1.228-0.247-1.677-0.731l-4.392-4.729c-0.859-0.925-0.806-2.373,0.12-3.232
			s2.373-0.806,3.232,0.12l2.922,3.147l8.962-7.407c0.974-0.805,2.416-0.668,3.22,0.306c0.805,0.974,0.668,2.415-0.306,3.22
			L55.87,82.963C55.444,83.315,54.928,83.487,54.413,83.487z"/>
	</g>
	<g>
		<path fill="#737678" d="M128.104,102.387H79.065c-1.263,0-2.287-1.024-2.287-2.288c0-1.263,1.024-2.287,2.287-2.287h49.039
			c1.263,0,2.287,1.024,2.287,2.287C130.392,101.362,129.367,102.387,128.104,102.387z"/>
		<path fill="#737678" d="M54.413,106.778c-0.615,0-1.228-0.248-1.677-0.731l-4.392-4.729c-0.859-0.926-0.806-2.373,0.12-3.232
			s2.373-0.806,3.232,0.12l2.922,3.147l8.962-7.407c0.974-0.805,2.416-0.668,3.22,0.306c0.805,0.974,0.668,2.415-0.306,3.22
			l-10.626,8.783C55.444,106.605,54.928,106.778,54.413,106.778z"/>
	</g>
</g>
</svg>
