<?xml version="1.0" encoding="utf-8"?>
<!-- Generator: Adobe Illustrator 15.1.0, SVG Export Plug-In . SVG Version: 6.00 Build 0)  -->
<!DOCTYPE svg PUBLIC "-//W3C//DTD SVG 1.1//EN" "http://www.w3.org/Graphics/SVG/1.1/DTD/svg11.dtd">
<svg version="1.1" id="Layer_1" xmlns="http://www.w3.org/2000/svg" xmlns:xlink="http://www.w3.org/1999/xlink" x="0px" y="0px"
	 width="1101px" height="189.475px" viewBox="0 0 1101 189.475" enable-background="new 0 0 1101 189.475" xml:space="preserve">
<polygon fill="#E1ECEC" points="0,34.622 76,49.286 152.602,35.764 208.668,46.264 251.334,40.266 296.719,51.264 378,38.932 
	430.014,56.264 523.007,40.264 581.477,25.973 643,45.598 695.334,34.264 760.834,47.264 834.668,51.264 910.668,33.598 962,51.264 
	1021,40.264 1090,58.932 1090,146.264 0,147.266 "/>
<linearGradient id="SVGID_1_" gradientUnits="userSpaceOnUse" x1="526.7241" y1="155.2637" x2="526.7241" y2="40.9727">
	<stop  offset="0" style="stop-color:#FFFFFF"/>
	<stop  offset="1" style="stop-color:#C0D7DC"/>
</linearGradient>
<polygon fill="url(#SVGID_1_)" points="1101,48.852 1020.933,62.21 940.23,49.892 881.166,59.457 836.217,53.992 788.4,64.012 
	702.77,52.777 647.973,68.566 550.004,53.992 488.404,40.973 423.589,58.851 368.453,48.525 299.449,60.368 221.664,64.012 
	141.598,47.919 87.517,64.012 25.525,53.992 -47,70.997 -47.553,155.264 1099.891,155.264 "/>
<g>
	<g opacity="0.5">
		<g>
			<g>
				
					<line fill="none" stroke="#676767" stroke-width="3" stroke-miterlimit="10" x1="1148.334" y1="87.764" x2="1253.733" y2="65.764"/>
				<g>
					<circle fill="#676767" cx="1148.334" cy="87.764" r="3.384"/>
				</g>
				<g>
					<circle fill="#676767" cx="1253.733" cy="65.764" r="3.384"/>
				</g>
			</g>
		</g>
		<g>
			<g>
				
					<line fill="none" stroke="#9BC997" stroke-width="3" stroke-miterlimit="10" x1="1054.334" y1="133.764" x2="1148.334" y2="87.764"/>
				<g>
					<circle fill="#9BC997" cx="1054.334" cy="133.764" r="3.383"/>
				</g>
			</g>
		</g>
		<g>
			<g>
				
					<line fill="none" stroke="#F37576" stroke-width="3" stroke-miterlimit="10" x1="876.334" y1="62.443" x2="1054.334" y2="133.764"/>
				<g>
					<circle fill="#F37576" cx="876.334" cy="62.443" r="3.384"/>
				</g>
			</g>
		</g>
		<g>
			<g>
				
					<line fill="none" stroke="#9BC997" stroke-width="3" stroke-miterlimit="10" x1="745.334" y1="131.764" x2="876.334" y2="62.443"/>
				<g>
					<circle fill="#9BC997" cx="745.334" cy="131.764" r="3.384"/>
				</g>
			</g>
		</g>
		<g>
			<g>
				
					<line fill="none" stroke="#F37576" stroke-width="3" stroke-miterlimit="10" x1="599.334" y1="47.264" x2="745.334" y2="131.764"/>
				<g>
					<circle fill="#F37576" cx="599.334" cy="47.264" r="3.384"/>
				</g>
			</g>
		</g>
		<g>
			<g>
				
					<line fill="none" stroke="#9BC997" stroke-width="3" stroke-miterlimit="10" x1="473.334" y1="121.764" x2="599.334" y2="47.264"/>
				<g>
					<circle fill="#9BC997" cx="473.334" cy="121.764" r="3.384"/>
				</g>
			</g>
		</g>
		<g>
			<g>
				
					<line fill="none" stroke="#9BC997" stroke-width="3" stroke-miterlimit="10" x1="309.334" y1="142.706" x2="473.334" y2="121.764"/>
				<g>
					<circle fill="#9BC997" cx="309.334" cy="142.706" r="3.384"/>
				</g>
			</g>
		</g>
		<g>
			<g>
				
					<line fill="none" stroke="#F37576" stroke-width="3" stroke-miterlimit="10" x1="193.334" y1="76.264" x2="309.334" y2="142.706"/>
				<g>
					<circle fill="#F37576" cx="193.334" cy="76.264" r="3.384"/>
				</g>
			</g>
		</g>
		<g>
			<g>
				
					<line fill="none" stroke="#9BC997" stroke-width="3" stroke-miterlimit="10" x1="63.293" y1="91.764" x2="193.334" y2="76.264"/>
				<g>
					<circle fill="#9BC997" cx="63.293" cy="91.764" r="3.384"/>
				</g>
			</g>
		</g>
		<line fill="none" stroke="#F37576" stroke-width="3" stroke-miterlimit="10" x1="-43" y1="39.238" x2="63.293" y2="91.764"/>
	</g>
	<g>
		<g>
			<g>
				<line fill="none" stroke="#9BC997" stroke-miterlimit="10" x1="1028.717" y1="133.188" x2="1107.334" y2="144.874"/>
				<g>
					<circle fill="#9BC997" cx="1028.717" cy="133.188" r="1.88"/>
				</g>
			</g>
		</g>
		<g>
			<g>
				<line fill="none" stroke="#9BC997" stroke-miterlimit="10" x1="912.918" y1="91.755" x2="1028.717" y2="133.188"/>
				<g>
					<circle fill="#9BC997" cx="912.918" cy="91.755" r="1.88"/>
				</g>
			</g>
		</g>
		<g>
			<g>
				<line fill="none" stroke="#9BC997" stroke-miterlimit="10" x1="796.056" y1="144.874" x2="912.918" y2="91.755"/>
				<g>
					<circle fill="#9BC997" cx="796.056" cy="144.874" r="1.88"/>
				</g>
			</g>
		</g>
		<g>
			<g>
				<line fill="none" stroke="#9BC997" stroke-miterlimit="10" x1="613.326" y1="67.32" x2="796.056" y2="144.874"/>
				<g>
					<circle fill="#9BC997" cx="613.326" cy="67.32" r="1.88"/>
				</g>
			</g>
		</g>
		<g>
			<g>
				<line fill="none" stroke="#9BC997" stroke-miterlimit="10" x1="480.529" y1="138.5" x2="613.326" y2="67.32"/>
				<g>
					<circle fill="#9BC997" cx="480.529" cy="138.5" r="1.88"/>
				</g>
			</g>
		</g>
		<g>
			<g>
				<line fill="none" stroke="#9BC997" stroke-miterlimit="10" x1="359.418" y1="69.445" x2="480.529" y2="138.5"/>
				<g>
					<circle fill="#9BC997" cx="359.418" cy="69.445" r="1.88"/>
				</g>
			</g>
		</g>
		<g>
			<g>
				<line fill="none" stroke="#9BC997" stroke-miterlimit="10" x1="228.744" y1="102.379" x2="359.418" y2="69.445"/>
				<g>
					<circle fill="#9BC997" cx="228.744" cy="102.379" r="1.88"/>
				</g>
			</g>
		</g>
		<g>
			<g>
				<line fill="none" stroke="#9BC997" stroke-miterlimit="10" x1="120.381" y1="40.809" x2="228.744" y2="102.379"/>
				<g>
					<circle fill="#9BC997" cx="120.381" cy="40.809" r="1.88"/>
				</g>
			</g>
		</g>
		<g>
			<g>
				<line fill="none" stroke="#9BC997" stroke-miterlimit="10" x1="0.334" y1="122.564" x2="120.381" y2="40.809"/>
				<g>
					<circle fill="#9BC997" cx="0.334" cy="122.564" r="1.88"/>
				</g>
			</g>
		</g>
	</g>
	<g opacity="0.3">
		<g>
			<g>
				<line fill="none" stroke="#676767" stroke-miterlimit="10" x1="899.699" y1="58.486" x2="937.721" y2="64.139"/>
				<g>
					<circle fill="#676767" cx="899.699" cy="58.486" r="1.88"/>
				</g>
			</g>
		</g>
		<g>
			<g>
				<line fill="none" stroke="#676767" stroke-miterlimit="10" x1="843.693" y1="38.448" x2="899.699" y2="58.486"/>
				<g>
					<circle fill="#676767" cx="843.693" cy="38.448" r="1.88"/>
				</g>
			</g>
		</g>
		<g>
			<g>
				<line fill="none" stroke="#676767" stroke-miterlimit="10" x1="787.174" y1="64.139" x2="843.693" y2="38.448"/>
				<g>
					<circle fill="#676767" cx="787.174" cy="64.139" r="1.88"/>
				</g>
			</g>
		</g>
		<g>
			<g>
				<line fill="none" stroke="#676767" stroke-miterlimit="10" x1="698.8" y1="26.631" x2="787.174" y2="64.139"/>
				<g>
					<circle fill="#676767" cx="698.8" cy="26.631" r="1.88"/>
				</g>
			</g>
		</g>
		<g>
			<g>
				<line fill="none" stroke="#676767" stroke-miterlimit="10" x1="634.574" y1="61.057" x2="698.8" y2="26.631"/>
				<g>
					<circle fill="#676767" cx="634.574" cy="61.057" r="1.88"/>
				</g>
			</g>
		</g>
		<g>
			<g>
				<line fill="none" stroke="#676767" stroke-miterlimit="10" x1="576" y1="27.658" x2="634.574" y2="61.057"/>
				<g>
					<circle fill="#676767" cx="576" cy="27.658" r="1.88"/>
				</g>
			</g>
		</g>
		<g>
			<g>
				<line fill="none" stroke="#676767" stroke-miterlimit="10" x1="512.801" y1="43.586" x2="576" y2="27.658"/>
				<g>
					<circle fill="#676767" cx="512.801" cy="43.586" r="1.88"/>
				</g>
			</g>
		</g>
		<g>
			<g>
				<line fill="none" stroke="#676767" stroke-miterlimit="10" x1="460.393" y1="13.809" x2="512.801" y2="43.586"/>
				<g>
					<circle fill="#676767" cx="460.393" cy="13.809" r="1.88"/>
				</g>
			</g>
		</g>
		<g>
			<g>
				<line fill="none" stroke="#676767" stroke-miterlimit="10" x1="402.334" y1="53.35" x2="460.393" y2="13.809"/>
				<g>
					<circle fill="#676767" cx="402.334" cy="53.35" r="1.88"/>
				</g>
			</g>
		</g>
	</g>
	<g opacity="0.3">
		<g>
			<g>
				<line fill="none" stroke="#FFFFFF" stroke-miterlimit="10" x1="905.334" y1="159.764" x2="979.334" y2="170.764"/>
				<g>
					<circle fill="#FFFFFF" cx="905.334" cy="159.764" r="1.88"/>
				</g>
			</g>
		</g>
		<g>
			<g>
				<line fill="none" stroke="#FFFFFF" stroke-miterlimit="10" x1="796.334" y1="120.764" x2="905.334" y2="159.764"/>
				<g>
					<circle fill="#FFFFFF" cx="796.334" cy="120.764" r="1.879"/>
				</g>
			</g>
		</g>
		<g>
			<g>
				<line fill="none" stroke="#FFFFFF" stroke-miterlimit="10" x1="686.334" y1="170.764" x2="796.334" y2="120.764"/>
				<g>
					<circle fill="#FFFFFF" cx="686.334" cy="170.764" r="1.88"/>
				</g>
			</g>
		</g>
		<g>
			<g>
				<line fill="none" stroke="#FFFFFF" stroke-miterlimit="10" x1="514.334" y1="97.764" x2="686.334" y2="170.764"/>
				<g>
					<circle fill="#FFFFFF" cx="514.334" cy="97.764" r="1.88"/>
				</g>
			</g>
		</g>
		<g>
			<g>
				<line fill="none" stroke="#FFFFFF" stroke-miterlimit="10" x1="389.334" y1="164.764" x2="514.334" y2="97.764"/>
				<g>
					<circle fill="#FFFFFF" cx="389.334" cy="164.764" r="1.88"/>
				</g>
			</g>
		</g>
		<g>
			<g>
				<line fill="none" stroke="#FFFFFF" stroke-miterlimit="10" x1="275.334" y1="99.764" x2="389.334" y2="164.764"/>
				<g>
					<circle fill="#FFFFFF" cx="275.334" cy="99.764" r="1.88"/>
				</g>
			</g>
		</g>
		<g>
			<g>
				<line fill="none" stroke="#FFFFFF" stroke-miterlimit="10" x1="152.334" y1="130.764" x2="275.334" y2="99.764"/>
				<g>
					<circle fill="#FFFFFF" cx="152.334" cy="130.764" r="1.88"/>
				</g>
			</g>
		</g>
		<g>
			<g>
				<line fill="none" stroke="#FFFFFF" stroke-miterlimit="10" x1="50.334" y1="72.809" x2="152.334" y2="130.764"/>
				<g>
					<circle fill="#FFFFFF" cx="50.334" cy="72.809" r="1.88"/>
				</g>
			</g>
		</g>
		<g>
			<g>
				<line fill="none" stroke="#FFFFFF" stroke-miterlimit="10" x1="-62.666" y1="149.764" x2="50.334" y2="72.809"/>
				<g>
					<circle fill="#FFFFFF" cx="-62.666" cy="149.764" r="1.88"/>
				</g>
			</g>
		</g>
	</g>
	<g>
		<g>
			<g>
				<line fill="none" stroke="#FFFFFF" stroke-miterlimit="10" x1="139.334" y1="125.764" x2="0" y2="126.917"/>
				<g>
					<circle fill="#FFFFFF" cx="139.334" cy="125.764" r="1.88"/>
				</g>
			</g>
		</g>
		<g>
			<g>
				<line fill="none" stroke="#FFFFFF" stroke-miterlimit="10" x1="248.334" y1="86.764" x2="139.334" y2="125.764"/>
				<g>
					<circle fill="#FFFFFF" cx="248.334" cy="86.764" r="1.879"/>
				</g>
			</g>
		</g>
		<g>
			<g>
				<line fill="none" stroke="#FFFFFF" stroke-miterlimit="10" x1="358.334" y1="136.764" x2="248.334" y2="86.764"/>
				<g>
					<circle fill="#FFFFFF" cx="358.334" cy="136.764" r="1.879"/>
				</g>
			</g>
		</g>
		<g>
			<g>
				<line fill="none" stroke="#FFFFFF" stroke-miterlimit="10" x1="530.334" y1="63.764" x2="358.334" y2="136.764"/>
				<g>
					<circle fill="#FFFFFF" cx="530.334" cy="63.764" r="1.88"/>
				</g>
			</g>
		</g>
		<g>
			<g>
				<line fill="none" stroke="#FFFFFF" stroke-miterlimit="10" x1="655.334" y1="130.764" x2="530.334" y2="63.764"/>
				<g>
					<circle fill="#FFFFFF" cx="655.334" cy="130.764" r="1.88"/>
				</g>
			</g>
		</g>
		<g>
			<g>
				<line fill="none" stroke="#FFFFFF" stroke-miterlimit="10" x1="769.334" y1="65.764" x2="655.334" y2="130.764"/>
				<g>
					<circle fill="#FFFFFF" cx="769.334" cy="65.764" r="1.88"/>
				</g>
			</g>
		</g>
		<g>
			<g>
				<line fill="none" stroke="#FFFFFF" stroke-miterlimit="10" x1="892.334" y1="96.764" x2="769.334" y2="65.764"/>
				<g>
					<circle fill="#FFFFFF" cx="892.334" cy="96.764" r="1.88"/>
				</g>
			</g>
		</g>
		<g>
			<g>
				<line fill="none" stroke="#FFFFFF" stroke-miterlimit="10" x1="994.334" y1="38.809" x2="892.334" y2="96.764"/>
				<g>
					<circle fill="#FFFFFF" cx="994.334" cy="38.809" r="1.88"/>
				</g>
			</g>
		</g>
		<g>
			<g>
				<line fill="none" stroke="#FFFFFF" stroke-miterlimit="10" x1="1107.334" y1="115.764" x2="994.334" y2="38.809"/>
				<g>
					<circle fill="#FFFFFF" cx="1107.334" cy="115.764" r="1.88"/>
				</g>
			</g>
		</g>
	</g>
	<g opacity="0.5">
		<g>
			<g>
				<line fill="none" stroke="#5A7588" stroke-miterlimit="10" x1="1013.334" y1="77.514" x2="1105.334" y2="24.764"/>
				<g>
					<circle fill="#5A7588" cx="1013.334" cy="77.514" r="1.88"/>
				</g>
			</g>
		</g>
		<g>
			<g>
				<line fill="none" stroke="#5A7588" stroke-miterlimit="10" x1="903.334" y1="76.286" x2="1013.334" y2="77.514"/>
				<g>
					<circle fill="#5A7588" cx="903.334" cy="76.286" r="1.88"/>
				</g>
			</g>
		</g>
		<g>
			<g>
				<line fill="none" stroke="#5A7588" stroke-miterlimit="10" x1="810.334" y1="37.809" x2="903.334" y2="76.286"/>
				<g>
					<circle fill="#5A7588" cx="810.334" cy="37.809" r="1.88"/>
				</g>
			</g>
		</g>
		<g>
			<g>
				<line fill="none" stroke="#5A7588" stroke-miterlimit="10" x1="725.334" y1="62.764" x2="810.334" y2="37.809"/>
				<g>
					<circle fill="#5A7588" cx="725.334" cy="62.764" r="1.88"/>
				</g>
			</g>
		</g>
		<g>
			<g>
				<line fill="none" stroke="#5A7588" stroke-miterlimit="10" x1="639.334" y1="36.764" x2="725.334" y2="62.764"/>
				<g>
					<circle fill="#5A7588" cx="639.334" cy="36.764" r="1.88"/>
				</g>
			</g>
		</g>
		<g>
			<g>
				<line fill="none" stroke="#5A7588" stroke-miterlimit="10" x1="526.334" y1="74.514" x2="639.334" y2="36.764"/>
				<g>
					<circle fill="#5A7588" cx="526.334" cy="74.514" r="1.88"/>
				</g>
			</g>
		</g>
		<g>
			<g>
				<line fill="none" stroke="#5A7588" stroke-miterlimit="10" x1="418.334" y1="85.764" x2="526.334" y2="74.514"/>
				<g>
					<circle fill="#5A7588" cx="418.334" cy="85.764" r="1.88"/>
				</g>
			</g>
		</g>
		<g>
			<g>
				<line fill="none" stroke="#5A7588" stroke-miterlimit="10" x1="347.334" y1="49.764" x2="418.334" y2="85.764"/>
				<g>
					<circle fill="#5A7588" cx="347.334" cy="49.764" r="1.88"/>
				</g>
			</g>
		</g>
		<g>
			<g>
				<line fill="none" stroke="#5A7588" stroke-miterlimit="10" x1="245.334" y1="99.264" x2="347.334" y2="49.764"/>
				<g>
					<circle fill="#5A7588" cx="245.334" cy="99.264" r="1.88"/>
				</g>
			</g>
		</g>
	</g>
</g>
<rect y="-467.736" fill="none" width="1101.334" height="857"/>
</svg>
