<?xml version="1.0" encoding="utf-8"?>
<!-- Generator: Adobe Illustrator 15.0.0, SVG Export Plug-In . SVG Version: 6.00 Build 0)  -->
<!DOCTYPE svg PUBLIC "-//W3C//DTD SVG 1.1//EN" "http://www.w3.org/Graphics/SVG/1.1/DTD/svg11.dtd">
<svg version="1.1" id="Layer_1" xmlns="http://www.w3.org/2000/svg" xmlns:xlink="http://www.w3.org/1999/xlink" x="0px" y="0px"
	 width="115.42px" height="132.729px" viewBox="0 0 115.42 132.729" enable-background="new 0 0 115.42 132.729"
	 xml:space="preserve">
<g>
	<path fill="#FFFFFF" d="M57.71,1.865l55.799,32.216v64.43L57.71,130.726L1.911,98.51V34.08L57.71,1.865 M57.71,0.71l-0.5,0.289
		L1.411,33.214l-0.5,0.289v0.577v64.43v0.577l0.5,0.289l55.799,32.216l0.5,0.288l0.5-0.288l55.799-32.216l0.5-0.289V98.51V34.08
		v-0.577l-0.5-0.289L58.21,0.998L57.71,0.71L57.71,0.71z"/>
</g>
<line fill="none" stroke="#FFFFFF" stroke-miterlimit="10" x1="57.71" y1="1.865" x2="57.71" y2="130.726"/>
<line fill="none" stroke="#FFFFFF" stroke-miterlimit="10" x1="113.509" y1="98.51" x2="1.911" y2="34.08"/>
<line fill="none" stroke="#FFFFFF" stroke-miterlimit="10" x1="1.911" y1="98.51" x2="113.509" y2="34.08"/>
</svg>
